<mxfile host="app.diagrams.net" modified="2023-05-31T13:56:06.036Z" agent="Mozilla/5.0 (Windows NT 10.0; Win64; x64) AppleWebKit/537.36 (KHTML, like Gecko) Chrome/113.0.0.0 Safari/537.36" etag="u7A5IFms9AATYyQ13siO" version="21.3.5" type="device">
  <diagram name="Page-1" id="SMfYlNHpg3Qnstrv-gT0">
    <mxGraphModel dx="1567" dy="646" grid="1" gridSize="10" guides="1" tooltips="1" connect="1" arrows="1" fold="1" page="0" pageScale="1" pageWidth="827" pageHeight="1169" math="0" shadow="0">
      <root>
        <mxCell id="0" />
        <mxCell id="1" parent="0" />
        <mxCell id="NWbZZgmx0wOtJZBRiWbx-14" value="" style="shape=partialRectangle;whiteSpace=wrap;html=1;bottom=1;right=1;left=1;top=0;fillColor=none;routingCenterX=-0.5;rotation=90;" parent="1" vertex="1">
          <mxGeometry x="164.64" y="160.74" width="30.71" height="9.26" as="geometry" />
        </mxCell>
        <mxCell id="NWbZZgmx0wOtJZBRiWbx-1" value="" style="endArrow=none;html=1;rounded=0;" parent="1" edge="1">
          <mxGeometry width="50" height="50" relative="1" as="geometry">
            <mxPoint x="200" y="910" as="sourcePoint" />
            <mxPoint x="200" y="80" as="targetPoint" />
          </mxGeometry>
        </mxCell>
        <mxCell id="NWbZZgmx0wOtJZBRiWbx-2" value="&lt;font style=&quot;font-size: 18px;&quot;&gt;AP&lt;/font&gt;" style="text;html=1;align=center;verticalAlign=middle;resizable=0;points=[];autosize=1;strokeColor=none;fillColor=none;" parent="1" vertex="1">
          <mxGeometry x="175" y="25" width="50" height="40" as="geometry" />
        </mxCell>
        <mxCell id="NWbZZgmx0wOtJZBRiWbx-4" value="&lt;font style=&quot;font-size: 18px;&quot;&gt;Station&lt;/font&gt;" style="text;html=1;align=center;verticalAlign=middle;resizable=0;points=[];autosize=1;strokeColor=none;fillColor=none;" parent="1" vertex="1">
          <mxGeometry x="600" y="25" width="80" height="40" as="geometry" />
        </mxCell>
        <mxCell id="NWbZZgmx0wOtJZBRiWbx-5" value="" style="endArrow=none;html=1;rounded=0;" parent="1" edge="1">
          <mxGeometry width="50" height="50" relative="1" as="geometry">
            <mxPoint x="640" y="240" as="sourcePoint" />
            <mxPoint x="640" y="80" as="targetPoint" />
          </mxGeometry>
        </mxCell>
        <mxCell id="NWbZZgmx0wOtJZBRiWbx-6" value="&lt;h1 style=&quot;font-size: 13px; line-height: 70%;&quot;&gt;&lt;span style=&quot;font-weight: normal;&quot;&gt;&lt;font style=&quot;font-size: 13px;&quot;&gt;Configuration :&lt;/font&gt;SSID : &quot;APfipy&quot;&lt;/span&gt;&lt;/h1&gt;&lt;p style=&quot;font-size: 13px; line-height: 70%;&quot;&gt;&lt;font style=&quot;font-size: 13px;&quot;&gt;IP : 192.168.4.1&lt;/font&gt;&lt;/p&gt;" style="text;html=1;strokeColor=none;fillColor=none;spacing=5;spacingTop=-20;whiteSpace=wrap;overflow=hidden;rounded=0;" parent="1" vertex="1">
          <mxGeometry x="20" y="80" width="190" height="40" as="geometry" />
        </mxCell>
        <mxCell id="NWbZZgmx0wOtJZBRiWbx-7" value="Ouverture socket" style="text;html=1;strokeColor=none;fillColor=none;align=center;verticalAlign=middle;whiteSpace=wrap;rounded=0;" parent="1" vertex="1">
          <mxGeometry x="80" y="120" width="120" height="20" as="geometry" />
        </mxCell>
        <mxCell id="NWbZZgmx0wOtJZBRiWbx-8" value="socket.recv()" style="text;html=1;strokeColor=none;fillColor=none;align=center;verticalAlign=middle;whiteSpace=wrap;rounded=0;" parent="1" vertex="1">
          <mxGeometry x="90" y="140" width="80" height="30" as="geometry" />
        </mxCell>
        <mxCell id="NWbZZgmx0wOtJZBRiWbx-9" value="" style="endArrow=classic;html=1;rounded=0;exitX=0;exitY=0.5;exitDx=0;exitDy=0;" parent="1" source="NWbZZgmx0wOtJZBRiWbx-11" edge="1">
          <mxGeometry width="50" height="50" relative="1" as="geometry">
            <mxPoint x="640" y="150" as="sourcePoint" />
            <mxPoint x="200" y="180" as="targetPoint" />
          </mxGeometry>
        </mxCell>
        <mxCell id="NWbZZgmx0wOtJZBRiWbx-10" value="&lt;h1 style=&quot;font-size: 13px; line-height: 70%;&quot;&gt;&lt;span style=&quot;font-weight: normal;&quot;&gt;&lt;font style=&quot;font-size: 13px;&quot;&gt;Configuration :&lt;/font&gt;SSID : &quot;APfipy&quot;&lt;/span&gt;&lt;/h1&gt;&lt;p style=&quot;font-size: 13px; line-height: 70%;&quot;&gt;&lt;font style=&quot;font-size: 13px;&quot;&gt;IP : 192.168.4.1&lt;/font&gt;&lt;/p&gt;" style="text;html=1;strokeColor=none;fillColor=none;spacing=5;spacingTop=-20;whiteSpace=wrap;overflow=hidden;rounded=0;" parent="1" vertex="1">
          <mxGeometry x="650" y="80" width="190" height="40" as="geometry" />
        </mxCell>
        <mxCell id="NWbZZgmx0wOtJZBRiWbx-11" value="socket.send(&#39;1000 0000&#39;)" style="text;html=1;strokeColor=none;fillColor=none;align=center;verticalAlign=middle;whiteSpace=wrap;rounded=0;" parent="1" vertex="1">
          <mxGeometry x="640" y="140" width="160" height="30" as="geometry" />
        </mxCell>
        <mxCell id="NWbZZgmx0wOtJZBRiWbx-12" value="Ouverture socket" style="text;html=1;strokeColor=none;fillColor=none;align=center;verticalAlign=middle;whiteSpace=wrap;rounded=0;" parent="1" vertex="1">
          <mxGeometry x="650" y="120" width="120" height="20" as="geometry" />
        </mxCell>
        <mxCell id="NWbZZgmx0wOtJZBRiWbx-16" value="requète horloge (en-tête : &#39;1000 0000&#39;)" style="text;html=1;strokeColor=none;fillColor=none;align=center;verticalAlign=middle;whiteSpace=wrap;rounded=0;rotation=357;" parent="1" vertex="1">
          <mxGeometry x="294" y="140" width="240" height="30" as="geometry" />
        </mxCell>
        <mxCell id="NWbZZgmx0wOtJZBRiWbx-17" value="socket.recv()" style="text;html=1;strokeColor=none;fillColor=none;align=center;verticalAlign=middle;whiteSpace=wrap;rounded=0;" parent="1" vertex="1">
          <mxGeometry x="670" y="165" width="80" height="30" as="geometry" />
        </mxCell>
        <mxCell id="NWbZZgmx0wOtJZBRiWbx-18" value="" style="shape=partialRectangle;whiteSpace=wrap;html=1;bottom=1;right=1;left=1;top=0;fillColor=none;routingCenterX=-0.5;rotation=-90;" parent="1" vertex="1">
          <mxGeometry x="635" y="195" width="40.71" height="10" as="geometry" />
        </mxCell>
        <mxCell id="NWbZZgmx0wOtJZBRiWbx-20" value="" style="endArrow=classic;html=1;rounded=0;" parent="1" edge="1">
          <mxGeometry width="50" height="50" relative="1" as="geometry">
            <mxPoint x="200" y="195" as="sourcePoint" />
            <mxPoint x="640" y="220" as="targetPoint" />
          </mxGeometry>
        </mxCell>
        <mxCell id="NWbZZgmx0wOtJZBRiWbx-21" value="socket.send(&#39;1010 0000&#39; + donnee-horloge)" style="text;html=1;strokeColor=none;fillColor=none;align=center;verticalAlign=middle;whiteSpace=wrap;rounded=0;" parent="1" vertex="1">
          <mxGeometry x="-50" y="185" width="250" height="30" as="geometry" />
        </mxCell>
        <mxCell id="NWbZZgmx0wOtJZBRiWbx-22" value="Réponse horloge (en-tête : &#39;1010 0000&#39;)" style="text;html=1;strokeColor=none;fillColor=none;align=center;verticalAlign=middle;whiteSpace=wrap;rounded=0;rotation=3;" parent="1" vertex="1">
          <mxGeometry x="320" y="185" width="240" height="30" as="geometry" />
        </mxCell>
        <mxCell id="NWbZZgmx0wOtJZBRiWbx-24" value="temps d&#39;attente bloquant d&#39;une réception (max 0.05 seconde)" style="text;html=1;strokeColor=none;fillColor=none;align=center;verticalAlign=middle;whiteSpace=wrap;rounded=0;" parent="1" vertex="1">
          <mxGeometry x="664" y="185" width="350" height="30" as="geometry" />
        </mxCell>
        <mxCell id="nLO0gCaYjz6h9ZfIbC8Q-3" value="" style="endArrow=none;dashed=1;html=1;rounded=0;" parent="1" edge="1">
          <mxGeometry width="50" height="50" relative="1" as="geometry">
            <mxPoint x="640" y="740" as="sourcePoint" />
            <mxPoint x="640" y="240" as="targetPoint" />
          </mxGeometry>
        </mxCell>
        <mxCell id="nLO0gCaYjz6h9ZfIbC8Q-8" value="" style="shape=partialRectangle;whiteSpace=wrap;html=1;bottom=1;right=1;left=1;top=0;fillColor=none;routingCenterX=-0.5;rotation=90;" parent="1" vertex="1">
          <mxGeometry x="168.66" y="246.73" width="22.68" height="9.26" as="geometry" />
        </mxCell>
        <mxCell id="nLO0gCaYjz6h9ZfIbC8Q-9" value="socket.recv()" style="text;html=1;strokeColor=none;fillColor=none;align=center;verticalAlign=middle;whiteSpace=wrap;rounded=0;" parent="1" vertex="1">
          <mxGeometry x="90" y="230" width="80" height="30" as="geometry" />
        </mxCell>
        <mxCell id="nLO0gCaYjz6h9ZfIbC8Q-13" value="Traitement()" style="text;html=1;strokeColor=none;fillColor=none;align=center;verticalAlign=middle;whiteSpace=wrap;rounded=0;" parent="1" vertex="1">
          <mxGeometry x="115" y="270" width="60" height="30" as="geometry" />
        </mxCell>
        <mxCell id="nLO0gCaYjz6h9ZfIbC8Q-14" value="Si horloge modulo 5 seconde == 0&amp;nbsp;&lt;br&gt;début service période" style="text;html=1;strokeColor=none;fillColor=none;align=center;verticalAlign=middle;whiteSpace=wrap;rounded=0;" parent="1" vertex="1">
          <mxGeometry x="-20" y="300" width="230" height="30" as="geometry" />
        </mxCell>
        <mxCell id="nLO0gCaYjz6h9ZfIbC8Q-15" value="" style="shape=curlyBracket;whiteSpace=wrap;html=1;rounded=1;labelPosition=left;verticalLabelPosition=middle;align=right;verticalAlign=middle;" parent="1" vertex="1">
          <mxGeometry x="-30" y="240" width="20" height="90" as="geometry" />
        </mxCell>
        <mxCell id="nLO0gCaYjz6h9ZfIbC8Q-16" value="Block répéter à l&#39;infinie&lt;br&gt;" style="text;html=1;strokeColor=none;fillColor=none;align=center;verticalAlign=middle;whiteSpace=wrap;rounded=0;" parent="1" vertex="1">
          <mxGeometry x="-140" y="270" width="100" height="30" as="geometry" />
        </mxCell>
        <mxCell id="nLO0gCaYjz6h9ZfIbC8Q-18" value="5 seconde d&#39;intervalle&amp;nbsp;" style="text;html=1;strokeColor=none;fillColor=none;align=center;verticalAlign=middle;whiteSpace=wrap;rounded=0;" parent="1" vertex="1">
          <mxGeometry x="640" y="246.73" width="170" height="30" as="geometry" />
        </mxCell>
        <mxCell id="wnVpnBD2hjMtxrJWYH7X-4" value="" style="endArrow=classic;html=1;rounded=0;" parent="1" edge="1">
          <mxGeometry width="50" height="50" relative="1" as="geometry">
            <mxPoint x="200" y="410" as="sourcePoint" />
            <mxPoint x="640" y="435" as="targetPoint" />
          </mxGeometry>
        </mxCell>
        <mxCell id="wnVpnBD2hjMtxrJWYH7X-6" value="Data (en-tête : &#39;0000 0000&#39;)" style="text;html=1;strokeColor=none;fillColor=none;align=center;verticalAlign=middle;whiteSpace=wrap;rounded=0;rotation=3;" parent="1" vertex="1">
          <mxGeometry x="320" y="400" width="240" height="30" as="geometry" />
        </mxCell>
        <mxCell id="wnVpnBD2hjMtxrJWYH7X-7" value="socket.send(&#39;0000 0000&#39; + donnée utile)" style="text;html=1;strokeColor=none;fillColor=none;align=center;verticalAlign=middle;whiteSpace=wrap;rounded=0;" parent="1" vertex="1">
          <mxGeometry x="-30" y="390" width="230" height="30" as="geometry" />
        </mxCell>
        <mxCell id="wnVpnBD2hjMtxrJWYH7X-8" value="" style="endArrow=classic;html=1;rounded=0;" parent="1" edge="1">
          <mxGeometry width="50" height="50" relative="1" as="geometry">
            <mxPoint x="200" y="498.27" as="sourcePoint" />
            <mxPoint x="640" y="523.27" as="targetPoint" />
          </mxGeometry>
        </mxCell>
        <mxCell id="wnVpnBD2hjMtxrJWYH7X-9" value="Data (en-tête : &#39;0001&amp;nbsp;0000&#39;)" style="text;html=1;strokeColor=none;fillColor=none;align=center;verticalAlign=middle;whiteSpace=wrap;rounded=0;rotation=3;" parent="1" vertex="1">
          <mxGeometry x="310" y="490" width="240" height="30" as="geometry" />
        </mxCell>
        <mxCell id="wnVpnBD2hjMtxrJWYH7X-10" value="socket.send(&#39;0001 0000&#39; + donnée utile)" style="text;html=1;strokeColor=none;fillColor=none;align=center;verticalAlign=middle;whiteSpace=wrap;rounded=0;" parent="1" vertex="1">
          <mxGeometry x="-30" y="480" width="230" height="30" as="geometry" />
        </mxCell>
        <mxCell id="nLO0gCaYjz6h9ZfIbC8Q-19" value="" style="shape=curlyBracket;whiteSpace=wrap;html=1;rounded=1;labelPosition=left;verticalLabelPosition=middle;align=right;verticalAlign=middle;" parent="1" vertex="1">
          <mxGeometry x="-60" y="400" width="20" height="160" as="geometry" />
        </mxCell>
        <mxCell id="nLO0gCaYjz6h9ZfIbC8Q-20" value="Période de service&amp;nbsp;" style="text;html=1;strokeColor=none;fillColor=none;align=center;verticalAlign=middle;whiteSpace=wrap;rounded=0;" parent="1" vertex="1">
          <mxGeometry x="-180" y="460" width="110" height="30" as="geometry" />
        </mxCell>
        <mxCell id="nLO0gCaYjz6h9ZfIbC8Q-21" value="" style="endArrow=none;html=1;rounded=0;" parent="1" edge="1">
          <mxGeometry width="50" height="50" relative="1" as="geometry">
            <mxPoint x="640" y="410" as="sourcePoint" />
            <mxPoint x="640" y="570" as="targetPoint" />
          </mxGeometry>
        </mxCell>
        <mxCell id="nLO0gCaYjz6h9ZfIbC8Q-22" value="période de service si horloge modulo 5 seconde == 0&amp;nbsp;" style="text;html=1;strokeColor=none;fillColor=none;align=center;verticalAlign=middle;whiteSpace=wrap;rounded=0;" parent="1" vertex="1">
          <mxGeometry x="664" y="276.73" width="290" height="30" as="geometry" />
        </mxCell>
        <mxCell id="nLO0gCaYjz6h9ZfIbC8Q-23" value="" style="endArrow=none;dashed=1;html=1;dashPattern=1 3;strokeWidth=2;rounded=0;" parent="1" edge="1">
          <mxGeometry width="50" height="50" relative="1" as="geometry">
            <mxPoint x="-200" y="328.82" as="sourcePoint" />
            <mxPoint x="1200" y="328.82" as="targetPoint" />
          </mxGeometry>
        </mxCell>
        <mxCell id="nLO0gCaYjz6h9ZfIbC8Q-24" value="" style="shape=curlyBracket;whiteSpace=wrap;html=1;rounded=1;flipH=1;labelPosition=right;verticalLabelPosition=middle;align=left;verticalAlign=middle;" parent="1" vertex="1">
          <mxGeometry x="1000" y="246.73" width="20" height="63.27" as="geometry" />
        </mxCell>
        <mxCell id="nLO0gCaYjz6h9ZfIbC8Q-25" value="Boucle infinie" style="text;html=1;strokeColor=none;fillColor=none;align=center;verticalAlign=middle;whiteSpace=wrap;rounded=0;" parent="1" vertex="1">
          <mxGeometry x="1050" y="263.37" width="100" height="30" as="geometry" />
        </mxCell>
        <mxCell id="nLO0gCaYjz6h9ZfIbC8Q-26" value="" style="endArrow=none;html=1;rounded=0;" parent="1" edge="1">
          <mxGeometry width="50" height="50" relative="1" as="geometry">
            <mxPoint x="640" y="336.73" as="sourcePoint" />
            <mxPoint x="640" y="276.73" as="targetPoint" />
          </mxGeometry>
        </mxCell>
        <mxCell id="nLO0gCaYjz6h9ZfIbC8Q-27" value="Exemple&lt;br&gt;" style="text;html=1;strokeColor=none;fillColor=none;align=center;verticalAlign=middle;whiteSpace=wrap;rounded=0;" parent="1" vertex="1">
          <mxGeometry x="390" y="293.37" width="60" height="30" as="geometry" />
        </mxCell>
        <mxCell id="nLO0gCaYjz6h9ZfIbC8Q-28" value="5 seconde d&#39;intervalle - le temps de traitement" style="text;html=1;strokeColor=none;fillColor=none;align=center;verticalAlign=middle;whiteSpace=wrap;rounded=0;" parent="1" vertex="1">
          <mxGeometry x="640" y="354.83" width="270" height="30" as="geometry" />
        </mxCell>
        <mxCell id="nLO0gCaYjz6h9ZfIbC8Q-29" value="socket.recv()" style="text;html=1;strokeColor=none;fillColor=none;align=center;verticalAlign=middle;whiteSpace=wrap;rounded=0;" parent="1" vertex="1">
          <mxGeometry x="665.71" y="400" width="80" height="30" as="geometry" />
        </mxCell>
        <mxCell id="nLO0gCaYjz6h9ZfIbC8Q-30" value="" style="shape=partialRectangle;whiteSpace=wrap;html=1;bottom=1;right=1;left=1;top=0;fillColor=none;routingCenterX=-0.5;rotation=-90;" parent="1" vertex="1">
          <mxGeometry x="650" y="420" width="15.71" height="10" as="geometry" />
        </mxCell>
        <mxCell id="nLO0gCaYjz6h9ZfIbC8Q-31" value="Traitement()" style="text;html=1;strokeColor=none;fillColor=none;align=center;verticalAlign=middle;whiteSpace=wrap;rounded=0;" parent="1" vertex="1">
          <mxGeometry x="665.71" y="430" width="60" height="30" as="geometry" />
        </mxCell>
        <mxCell id="nLO0gCaYjz6h9ZfIbC8Q-32" value="socket.recv()" style="text;html=1;strokeColor=none;fillColor=none;align=center;verticalAlign=middle;whiteSpace=wrap;rounded=0;" parent="1" vertex="1">
          <mxGeometry x="665.71" y="510" width="80" height="30" as="geometry" />
        </mxCell>
        <mxCell id="nLO0gCaYjz6h9ZfIbC8Q-33" value="" style="shape=partialRectangle;whiteSpace=wrap;html=1;bottom=1;right=1;left=1;top=0;fillColor=none;routingCenterX=-0.5;rotation=-90;" parent="1" vertex="1">
          <mxGeometry x="650" y="520" width="15.71" height="10" as="geometry" />
        </mxCell>
        <mxCell id="nLO0gCaYjz6h9ZfIbC8Q-34" value="Traitement(), le flag EOSP est utilisé fin de la periode de service" style="text;html=1;strokeColor=none;fillColor=none;align=left;verticalAlign=middle;whiteSpace=wrap;rounded=0;" parent="1" vertex="1">
          <mxGeometry x="650" y="530" width="345.71" height="30" as="geometry" />
        </mxCell>
        <mxCell id="nLO0gCaYjz6h9ZfIbC8Q-35" value="" style="shape=curlyBracket;whiteSpace=wrap;html=1;rounded=1;flipH=1;labelPosition=right;verticalLabelPosition=middle;align=left;verticalAlign=middle;" parent="1" vertex="1">
          <mxGeometry x="1030" y="430" width="20" height="130" as="geometry" />
        </mxCell>
        <mxCell id="nLO0gCaYjz6h9ZfIbC8Q-36" value="Période de service" style="text;html=1;strokeColor=none;fillColor=none;align=center;verticalAlign=middle;whiteSpace=wrap;rounded=0;" parent="1" vertex="1">
          <mxGeometry x="1060" y="480.74" width="100" height="30" as="geometry" />
        </mxCell>
        <mxCell id="nLO0gCaYjz6h9ZfIbC8Q-37" value="" style="endArrow=classic;html=1;rounded=0;" parent="1" edge="1">
          <mxGeometry width="50" height="50" relative="1" as="geometry">
            <mxPoint x="200" y="640" as="sourcePoint" />
            <mxPoint x="640" y="665" as="targetPoint" />
          </mxGeometry>
        </mxCell>
        <mxCell id="nLO0gCaYjz6h9ZfIbC8Q-38" value="NDP (en-tête : &#39;0100 0000&#39;)" style="text;html=1;strokeColor=none;fillColor=none;align=center;verticalAlign=middle;whiteSpace=wrap;rounded=0;rotation=3;" parent="1" vertex="1">
          <mxGeometry x="320" y="630" width="240" height="30" as="geometry" />
        </mxCell>
        <mxCell id="nLO0gCaYjz6h9ZfIbC8Q-39" value="socket.send(&#39;0000 0000&#39; + donnée utile)" style="text;html=1;strokeColor=none;fillColor=none;align=center;verticalAlign=middle;whiteSpace=wrap;rounded=0;" parent="1" vertex="1">
          <mxGeometry x="-30" y="620" width="230" height="30" as="geometry" />
        </mxCell>
        <mxCell id="nLO0gCaYjz6h9ZfIbC8Q-45" value="" style="endArrow=none;html=1;rounded=0;entryX=0.071;entryY=0.985;entryDx=0;entryDy=0;entryPerimeter=0;" parent="1" target="nLO0gCaYjz6h9ZfIbC8Q-52" edge="1">
          <mxGeometry width="50" height="50" relative="1" as="geometry">
            <mxPoint x="640" y="650" as="sourcePoint" />
            <mxPoint x="640" y="740" as="targetPoint" />
          </mxGeometry>
        </mxCell>
        <mxCell id="nLO0gCaYjz6h9ZfIbC8Q-46" value="socket.recv()" style="text;html=1;strokeColor=none;fillColor=none;align=center;verticalAlign=middle;whiteSpace=wrap;rounded=0;" parent="1" vertex="1">
          <mxGeometry x="670" y="640" width="80" height="30" as="geometry" />
        </mxCell>
        <mxCell id="nLO0gCaYjz6h9ZfIbC8Q-47" value="" style="shape=partialRectangle;whiteSpace=wrap;html=1;bottom=1;right=1;left=1;top=0;fillColor=none;routingCenterX=-0.5;rotation=-90;" parent="1" vertex="1">
          <mxGeometry x="654.29" y="660" width="15.71" height="10" as="geometry" />
        </mxCell>
        <mxCell id="nLO0gCaYjz6h9ZfIbC8Q-51" value="5 seconde d&#39;intervalle - le temps de traitement" style="text;html=1;strokeColor=none;fillColor=none;align=center;verticalAlign=middle;whiteSpace=wrap;rounded=0;" parent="1" vertex="1">
          <mxGeometry x="650" y="600" width="270" height="30" as="geometry" />
        </mxCell>
        <mxCell id="nLO0gCaYjz6h9ZfIbC8Q-52" value="Traitement(), réception trame NDP fin de la période de service&amp;nbsp;&amp;nbsp;" style="text;html=1;strokeColor=none;fillColor=none;align=center;verticalAlign=middle;whiteSpace=wrap;rounded=0;" parent="1" vertex="1">
          <mxGeometry x="610" y="670" width="425.71" height="30" as="geometry" />
        </mxCell>
        <mxCell id="nLO0gCaYjz6h9ZfIbC8Q-53" value="" style="endArrow=none;html=1;rounded=0;entryX=0.071;entryY=0.985;entryDx=0;entryDy=0;entryPerimeter=0;" parent="1" edge="1">
          <mxGeometry width="50" height="50" relative="1" as="geometry">
            <mxPoint x="640" y="800" as="sourcePoint" />
            <mxPoint x="640" y="850" as="targetPoint" />
          </mxGeometry>
        </mxCell>
        <mxCell id="nLO0gCaYjz6h9ZfIbC8Q-54" value="5 seconde d&#39;intervalle - le temps de traitement" style="text;html=1;strokeColor=none;fillColor=none;align=center;verticalAlign=middle;whiteSpace=wrap;rounded=0;" parent="1" vertex="1">
          <mxGeometry x="650" y="770" width="270" height="30" as="geometry" />
        </mxCell>
        <mxCell id="nLO0gCaYjz6h9ZfIbC8Q-55" value="socket.recv()" style="text;html=1;strokeColor=none;fillColor=none;align=center;verticalAlign=middle;whiteSpace=wrap;rounded=0;" parent="1" vertex="1">
          <mxGeometry x="670" y="800" width="80" height="30" as="geometry" />
        </mxCell>
        <mxCell id="nLO0gCaYjz6h9ZfIbC8Q-56" value="" style="shape=partialRectangle;whiteSpace=wrap;html=1;bottom=1;right=1;left=1;top=0;fillColor=none;routingCenterX=-0.5;rotation=-90;" parent="1" vertex="1">
          <mxGeometry x="654.29" y="820" width="15.71" height="10" as="geometry" />
        </mxCell>
        <mxCell id="nLO0gCaYjz6h9ZfIbC8Q-57" value="Si Station n&#39;a recu aucune trame pendant 1 seconde fin de la période de service&amp;nbsp;" style="text;html=1;strokeColor=none;fillColor=none;align=center;verticalAlign=middle;whiteSpace=wrap;rounded=0;" parent="1" vertex="1">
          <mxGeometry x="664" y="830" width="436" height="30" as="geometry" />
        </mxCell>
        <mxCell id="Cqid8Moz1TX-G31vJTsV-4" value="" style="shape=partialRectangle;whiteSpace=wrap;html=1;bottom=1;right=1;left=1;top=0;fillColor=none;routingCenterX=-0.5;rotation=90;" vertex="1" parent="1">
          <mxGeometry x="172.98999999999998" y="450.74" width="22.68" height="9.26" as="geometry" />
        </mxCell>
        <mxCell id="Cqid8Moz1TX-G31vJTsV-5" value="socket.recv()" style="text;html=1;strokeColor=none;fillColor=none;align=center;verticalAlign=middle;whiteSpace=wrap;rounded=0;" vertex="1" parent="1">
          <mxGeometry x="94.33" y="434.01" width="80" height="30" as="geometry" />
        </mxCell>
        <mxCell id="Cqid8Moz1TX-G31vJTsV-6" value="Traitement()" style="text;html=1;strokeColor=none;fillColor=none;align=center;verticalAlign=middle;whiteSpace=wrap;rounded=0;" vertex="1" parent="1">
          <mxGeometry x="119.96" y="460" width="60" height="30" as="geometry" />
        </mxCell>
        <mxCell id="Cqid8Moz1TX-G31vJTsV-8" value="" style="endArrow=classic;html=1;rounded=0;exitX=0;exitY=0.5;exitDx=0;exitDy=0;" edge="1" parent="1">
          <mxGeometry width="50" height="50" relative="1" as="geometry">
            <mxPoint x="640" y="462.5" as="sourcePoint" />
            <mxPoint x="200" y="463" as="targetPoint" />
          </mxGeometry>
        </mxCell>
        <mxCell id="Cqid8Moz1TX-G31vJTsV-9" value="socket.send(&#39;0000 0000&#39; + donnée utile)" style="text;html=1;strokeColor=none;fillColor=none;align=center;verticalAlign=middle;whiteSpace=wrap;rounded=0;" vertex="1" parent="1">
          <mxGeometry x="650" y="450.74" width="230" height="30" as="geometry" />
        </mxCell>
        <mxCell id="Cqid8Moz1TX-G31vJTsV-10" value="Data (en-tête : &#39;0000 0000&#39;)" style="text;html=1;strokeColor=none;fillColor=none;align=center;verticalAlign=middle;whiteSpace=wrap;rounded=0;rotation=0;" vertex="1" parent="1">
          <mxGeometry x="294" y="440.37" width="240" height="30" as="geometry" />
        </mxCell>
        <mxCell id="Cqid8Moz1TX-G31vJTsV-12" value="" style="shape=partialRectangle;whiteSpace=wrap;html=1;bottom=1;right=1;left=1;top=0;fillColor=none;routingCenterX=-0.5;rotation=90;" vertex="1" parent="1">
          <mxGeometry x="177.32" y="520.74" width="22.68" height="9.26" as="geometry" />
        </mxCell>
        <mxCell id="Cqid8Moz1TX-G31vJTsV-13" value="socket.recv()" style="text;html=1;strokeColor=none;fillColor=none;align=center;verticalAlign=middle;whiteSpace=wrap;rounded=0;" vertex="1" parent="1">
          <mxGeometry x="98.66" y="504.01" width="80" height="30" as="geometry" />
        </mxCell>
        <mxCell id="Cqid8Moz1TX-G31vJTsV-14" value="Traitement()" style="text;html=1;strokeColor=none;fillColor=none;align=center;verticalAlign=middle;whiteSpace=wrap;rounded=0;" vertex="1" parent="1">
          <mxGeometry x="124.28999999999998" y="530" width="60" height="30" as="geometry" />
        </mxCell>
        <mxCell id="Cqid8Moz1TX-G31vJTsV-15" value="" style="shape=partialRectangle;whiteSpace=wrap;html=1;bottom=1;right=1;left=1;top=0;fillColor=none;routingCenterX=-0.5;rotation=90;" vertex="1" parent="1">
          <mxGeometry x="177.32" y="586.73" width="22.68" height="9.26" as="geometry" />
        </mxCell>
        <mxCell id="Cqid8Moz1TX-G31vJTsV-16" value="socket.recv()" style="text;html=1;strokeColor=none;fillColor=none;align=center;verticalAlign=middle;whiteSpace=wrap;rounded=0;" vertex="1" parent="1">
          <mxGeometry x="98.66" y="570" width="80" height="30" as="geometry" />
        </mxCell>
        <mxCell id="Cqid8Moz1TX-G31vJTsV-17" value="Traitement()" style="text;html=1;strokeColor=none;fillColor=none;align=center;verticalAlign=middle;whiteSpace=wrap;rounded=0;" vertex="1" parent="1">
          <mxGeometry x="124.28999999999999" y="595.99" width="60" height="30" as="geometry" />
        </mxCell>
        <mxCell id="Cqid8Moz1TX-G31vJTsV-18" value="" style="shape=curlyBracket;whiteSpace=wrap;html=1;rounded=1;labelPosition=left;verticalLabelPosition=middle;align=right;verticalAlign=middle;" vertex="1" parent="1">
          <mxGeometry x="-60" y="570" width="20" height="80" as="geometry" />
        </mxCell>
        <mxCell id="Cqid8Moz1TX-G31vJTsV-19" value="Période de service&amp;nbsp;" style="text;html=1;strokeColor=none;fillColor=none;align=center;verticalAlign=middle;whiteSpace=wrap;rounded=0;" vertex="1" parent="1">
          <mxGeometry x="-180" y="590" width="110" height="30" as="geometry" />
        </mxCell>
      </root>
    </mxGraphModel>
  </diagram>
</mxfile>
